<svg version="1.1" id="Layer_1" xmlns="http://www.w3.org/2000/svg" xmlns:xlink="http://www.w3.org/1999/xlink" x="0px" y="0px"
	 width="100%" viewBox="0 0 1024 1024" enable-background="new 0 0 1024 1024" xml:space="preserve">
<path fill="#040404" opacity="1.000000" stroke="none" 
	d="
M492.000000,1025.000000 
	C328.000000,1025.000000 164.500000,1025.000000 1.000000,1025.000000 
	C1.000000,683.666687 1.000000,342.333344 1.000000,1.000000 
	C342.333344,1.000000 683.666687,1.000000 1025.000000,1.000000 
	C1025.000000,342.333344 1025.000000,683.666687 1025.000000,1025.000000 
	C847.500000,1025.000000 670.000000,1025.000000 492.000000,1025.000000 
M512.738159,389.951294 
	C544.307373,374.237457 575.644531,358.026947 607.583496,343.104370 
	C617.511841,338.465576 621.558044,333.135925 620.215393,322.340393 
	C619.628052,317.618042 618.450745,315.143738 614.174805,313.037964 
	C581.232788,296.815094 548.438049,280.293365 515.513672,264.034363 
	C513.827209,263.201508 511.011505,263.200287 509.327057,264.034485 
	C478.924744,279.090881 448.608826,294.322021 418.293945,309.554596 
	C413.704926,311.860474 407.468842,313.295898 405.166077,317.069336 
	C402.849792,320.865021 404.665283,327.087219 404.336212,332.224701 
	C404.125183,335.519470 405.339081,337.125946 408.329041,338.582306 
	C427.737793,348.036255 447.026031,357.737579 466.187561,368.367126 
	C466.111847,379.636993 466.036133,390.906860 465.247131,402.056488 
	C459.561584,399.308868 453.949249,396.389069 448.145142,393.920044 
	C446.436066,393.192963 443.827332,393.022156 442.234528,393.812683 
	C415.780945,406.942139 389.423615,420.265533 363.159180,433.487946 
	C363.159180,440.365936 363.159180,447.021729 363.089264,454.653564 
	C363.068848,481.270233 363.014374,507.887024 363.076050,534.503479 
	C363.082886,537.451294 363.752716,540.397461 363.658752,543.845276 
	C355.525970,547.945190 347.418304,552.095886 339.254822,556.133728 
	C324.999908,563.184631 324.928955,563.159668 326.101013,579.209290 
	C326.212952,580.742249 327.599976,582.182129 327.433502,583.960754 
	C326.958221,585.955811 326.079071,587.949036 326.069885,589.946228 
	C325.973389,610.930359 326.016998,631.915100 326.019775,652.899719 
	C326.021790,667.971619 326.090912,667.810364 340.157593,673.963562 
	C351.491974,678.921509 362.676605,684.231018 373.841614,689.564697 
	C388.174988,696.411987 402.398926,703.488037 416.713257,710.375671 
	C430.548828,717.032959 444.448364,723.557190 458.303345,730.174316 
	C474.556824,737.937012 490.756653,745.813110 507.055664,753.478577 
	C512.652161,756.110535 513.033325,755.744690 512.958679,749.325562 
	C512.666504,724.213257 512.322998,699.101624 512.686584,673.782898 
	C513.603210,673.387024 514.539612,673.031311 515.433594,672.589600 
	C572.093384,644.596497 628.571106,616.223511 685.562866,588.923645 
	C696.473938,583.697083 701.003418,577.759583 698.991760,566.174927 
	C698.552612,563.646118 698.113037,562.076294 695.631775,560.843567 
	C670.617493,548.416382 645.705078,535.783813 620.653381,523.433289 
	C618.814697,522.526794 615.754028,522.604187 613.877930,523.506287 
	C599.778076,530.286011 585.835693,537.392944 571.838867,544.387329 
	C552.642883,553.979797 533.442322,563.563171 513.579895,572.584106 
	C513.372742,570.296509 513.043579,568.012329 512.978699,565.720703 
	C512.612854,552.786133 512.310486,539.849792 512.680664,526.739990 
	C557.487976,504.458435 602.298523,482.183258 647.097900,459.885773 
	C651.700256,457.595093 658.080078,456.262543 660.299744,452.511627 
	C662.655579,448.530548 660.814758,442.178345 661.230713,436.895020 
	C661.481323,433.712158 660.267334,432.246246 657.537354,430.905853 
	C635.599121,420.134308 613.474487,409.695190 591.970093,398.109161 
	C582.903748,393.224396 575.915955,393.340057 566.938660,398.365692 
	C549.418091,408.174011 531.089783,416.539490 513.021301,424.500977 
	C513.005493,420.722626 513.080505,416.941223 512.954895,413.166534 
	C512.699402,405.486969 512.335632,397.811035 512.738159,389.951294 
z"/>
<path fill="#FAFAFA" opacity="1.000000" stroke="none" 
	d="
M514.243774,573.150452 
	C533.442322,563.563171 552.642883,553.979797 571.838867,544.387329 
	C585.835693,537.392944 599.778076,530.286011 613.877930,523.506287 
	C615.754028,522.604187 618.814697,522.526794 620.653381,523.433289 
	C645.705078,535.783813 670.617493,548.416382 695.631775,560.843567 
	C698.113037,562.076294 698.552612,563.646118 698.991760,566.174927 
	C701.003418,577.759583 696.473938,583.697083 685.562866,588.923645 
	C628.571106,616.223511 572.093384,644.596497 515.433594,672.589600 
	C514.539612,673.031311 513.603210,673.387024 512.077271,673.656128 
	C466.724579,651.479858 421.993256,629.405762 377.231232,607.394104 
	C360.990295,599.407654 344.675903,591.570496 328.395020,583.665283 
	C327.599976,582.182129 326.212952,580.742249 326.101013,579.209290 
	C324.928955,563.159668 324.999908,563.184631 339.254822,556.133728 
	C347.418304,552.095886 355.525970,547.945190 364.246582,543.535400 
	C378.140350,536.529846 391.426971,529.794983 404.783600,523.201965 
	C406.051849,522.575928 408.036133,522.240967 409.216248,522.788208 
	C415.817261,525.849243 422.294952,529.181580 428.744324,532.555847 
	C429.374664,532.885620 429.525452,534.132019 429.542664,534.988098 
	C404.607239,547.350220 380.028015,559.677246 354.758057,572.350647 
	C365.498322,577.627380 375.422699,582.567017 385.402588,587.391785 
	C401.229706,595.043457 417.093964,602.618225 433.126465,610.515015 
	C451.461548,619.706055 469.612701,628.607544 488.015442,637.733154 
	C495.126312,641.322205 502.045349,644.572754 508.814514,648.110168 
	C511.406006,649.464355 513.399048,649.558472 516.138428,648.187805 
	C545.715820,633.389343 575.386169,618.776611 605.025452,604.101807 
	C623.476257,594.966431 641.917480,585.811829 660.729309,576.591553 
	C663.759094,575.232178 666.422607,573.947083 670.067993,572.188171 
	C666.547668,570.563354 663.773254,569.282776 660.776855,567.733765 
	C647.468689,560.925598 634.318665,554.508667 621.342041,547.758118 
	C618.177979,546.112122 615.784058,546.110901 612.638489,547.708618 
	C578.076782,565.263489 543.455444,582.701172 508.813599,600.097534 
	C502.304962,603.366089 495.634766,606.312744 488.750061,609.172485 
	C485.927551,607.707397 483.398315,606.469055 480.859894,605.249756 
	C465.194611,597.725159 449.527222,590.204834 433.596191,582.422791 
	C430.609222,580.692688 427.886627,579.222961 424.819092,577.567017 
	C428.030029,575.732605 430.901123,574.092346 434.104156,572.392578 
	C437.592102,570.850647 440.941833,569.670715 443.853180,567.806274 
	C447.200409,565.662659 449.972900,565.805359 453.473114,567.615479 
	C464.242432,573.184692 475.162598,578.471069 486.140533,583.619202 
	C488.005341,584.493713 490.838074,584.997375 492.550781,584.209534 
	C499.918579,580.820618 507.035461,576.886169 514.243774,573.150452 
z"/>
<path fill="#212121" opacity="1.000000" stroke="none" 
	d="
M327.914246,583.812988 
	C344.675903,591.570496 360.990295,599.407654 377.231232,607.394104 
	C421.993256,629.405762 466.724579,651.479858 511.733276,673.759521 
	C512.322998,699.101624 512.666504,724.213257 512.958679,749.325562 
	C513.033325,755.744690 512.652161,756.110535 507.055664,753.478577 
	C490.756653,745.813110 474.556824,737.937012 458.303345,730.174316 
	C444.448364,723.557190 430.548828,717.032959 416.713257,710.375671 
	C402.398926,703.488037 388.174988,696.411987 373.841614,689.564697 
	C362.676605,684.231018 351.491974,678.921509 340.157593,673.963562 
	C326.090912,667.810364 326.021790,667.971619 326.019775,652.899719 
	C326.016998,631.915100 325.973389,610.930359 326.069885,589.946228 
	C326.079071,587.949036 326.958221,585.955811 327.914246,583.812988 
z"/>
<path fill="#FAFAFA" opacity="1.000000" stroke="none" 
	d="
M513.095947,425.502441 
	C531.089783,416.539490 549.418091,408.174011 566.938660,398.365692 
	C575.915955,393.340057 582.903748,393.224396 591.970093,398.109161 
	C613.474487,409.695190 635.599121,420.134308 657.537354,430.905853 
	C660.267334,432.246246 661.481323,433.712158 661.230713,436.895020 
	C660.814758,442.178345 662.655579,448.530548 660.299744,452.511627 
	C658.080078,456.262543 651.700256,457.595093 647.097900,459.885773 
	C602.298523,482.183258 557.487976,504.458435 512.083984,526.583984 
	C484.087952,512.901855 456.712463,499.327087 429.281677,485.864899 
	C407.275635,475.064941 385.202515,464.401520 363.159180,453.677490 
	C363.159180,447.021729 363.159180,440.365936 363.159180,433.487946 
	C389.423615,420.265533 415.780945,406.942139 442.234528,393.812683 
	C443.827332,393.022156 446.436066,393.192963 448.145142,393.920044 
	C453.949249,396.389069 459.561584,399.308868 465.734863,402.372589 
	C467.056488,403.405975 467.890381,404.123260 468.395691,404.935730 
	C443.088287,417.589294 418.109528,430.147644 392.552765,442.996613 
	C394.141022,443.875977 395.097931,444.454681 396.095856,444.950989 
	C410.666687,452.197693 425.223724,459.472443 439.824371,466.658722 
	C450.539734,471.932709 461.313843,477.087311 472.272339,482.551636 
	C477.626984,485.266937 482.771057,487.725739 488.142822,490.440674 
	C495.214874,494.107330 502.117432,497.407837 508.874298,500.983643 
	C511.489594,502.367676 513.578552,502.366241 516.260681,501.016937 
	C546.380981,485.863861 576.578064,470.863556 606.731262,455.775665 
	C614.965027,451.655701 623.121155,447.380524 632.181885,442.730652 
	C614.833923,434.057648 598.415833,425.733368 581.836426,417.743927 
	C580.212036,416.961182 577.336182,417.714996 575.478027,418.636414 
	C546.290039,433.110779 517.173767,447.729797 487.682983,462.202515 
	C482.223083,459.711090 477.121246,457.332703 471.800720,454.692749 
	C469.399323,453.303558 467.216583,452.175934 464.591553,450.819855 
	C467.380981,449.002045 469.689880,447.497406 472.353394,445.985168 
	C486.170624,439.152496 499.633270,432.327454 513.095947,425.502441 
z"/>
<path fill="#FAFAFA" opacity="1.000000" stroke="none" 
	d="
M466.353760,367.357849 
	C447.026031,357.737579 427.737793,348.036255 408.329041,338.582306 
	C405.339081,337.125946 404.125183,335.519470 404.336212,332.224701 
	C404.665283,327.087219 402.849792,320.865021 405.166077,317.069336 
	C407.468842,313.295898 413.704926,311.860474 418.293945,309.554596 
	C448.608826,294.322021 478.924744,279.090881 509.327057,264.034485 
	C511.011505,263.200287 513.827209,263.201508 515.513672,264.034363 
	C548.438049,280.293365 581.232788,296.815094 614.174805,313.037964 
	C618.450745,315.143738 619.628052,317.618042 620.215393,322.340393 
	C621.558044,333.135925 617.511841,338.465576 607.583496,343.104370 
	C575.644531,358.026947 544.307373,374.237457 512.104858,389.812378 
	C496.432312,382.234924 481.393036,374.796387 466.353760,367.357849 
M576.744995,333.991425 
	C581.526794,331.572571 586.308594,329.153687 592.021301,326.263916 
	C586.427307,323.543304 581.721069,321.254395 576.599426,318.415192 
	C556.397339,308.304626 536.235840,298.110901 515.928833,288.215668 
	C513.958740,287.255707 510.724030,287.358734 508.698975,288.303253 
	C498.751038,292.943085 489.011780,298.030579 479.202240,302.966827 
	C463.913330,310.660248 448.627197,318.359192 432.885712,326.284454 
	C434.496552,327.159027 435.587891,327.796112 436.716705,328.357819 
	C459.046753,339.468506 481.521088,350.302185 503.629028,361.838226 
	C510.233826,365.284637 515.322693,365.254639 521.863586,361.717010 
	C539.689575,352.075806 557.943726,343.226471 576.744995,333.991425 
z"/>
<path fill="#212121" opacity="1.000000" stroke="none" 
	d="
M363.124207,454.165527 
	C385.202515,464.401520 407.275635,475.064941 429.281677,485.864899 
	C456.712463,499.327087 484.087952,512.901855 511.736908,526.671021 
	C512.310486,539.849792 512.612854,552.786133 512.978699,565.720703 
	C513.043579,568.012329 513.372742,570.296509 513.911865,572.867310 
	C507.035461,576.886169 499.918579,580.820618 492.550781,584.209534 
	C490.838074,584.997375 488.005341,584.493713 486.140533,583.619202 
	C475.162598,578.471069 464.242432,573.184692 453.473114,567.615479 
	C449.972900,565.805359 447.200409,565.662659 443.853180,567.806274 
	C440.941833,569.670715 437.592102,570.850647 433.707336,572.107910 
	C432.651489,570.144043 432.060242,568.408081 432.041534,566.666016 
	C431.943573,557.535156 432.081787,548.400757 431.893860,539.272705 
	C431.863953,537.819702 430.594940,536.392273 429.898804,534.953003 
	C429.525452,534.132019 429.374664,532.885620 428.744324,532.555847 
	C422.294952,529.181580 415.817261,525.849243 409.216248,522.788208 
	C408.036133,522.240967 406.051849,522.575928 404.783600,523.201965 
	C391.426971,529.794983 378.140350,536.529846 364.474731,543.284973 
	C363.752716,540.397461 363.082886,537.451294 363.076050,534.503479 
	C363.014374,507.887024 363.068848,481.270233 363.124207,454.165527 
z"/>
<path fill="#212121" opacity="1.000000" stroke="none" 
	d="
M466.270660,367.862488 
	C481.393036,374.796387 496.432312,382.234924 511.744019,389.903534 
	C512.335632,397.811035 512.699402,405.486969 512.954895,413.166534 
	C513.080505,416.941223 513.005493,420.722626 513.058594,425.001709 
	C499.633270,432.327454 486.170624,439.152496 472.286194,445.572510 
	C471.571014,443.059326 471.046417,440.953552 471.024292,438.842560 
	C470.928894,429.743042 471.126190,420.638031 470.876190,411.544373 
	C470.814301,409.291718 469.475922,407.074219 468.724304,404.840546 
	C467.890381,404.123260 467.056488,403.405975 466.091492,402.432709 
	C466.036133,390.906860 466.111847,379.636993 466.270660,367.862488 
z"/>
<path fill="#070707" opacity="1.000000" stroke="none" 
	d="
M660.363037,576.665894 
	C641.917480,585.811829 623.476257,594.966431 605.025452,604.101807 
	C575.386169,618.776611 545.715820,633.389343 516.138428,648.187805 
	C513.399048,649.558472 511.406006,649.464355 508.814514,648.110168 
	C502.045349,644.572754 495.126312,641.322205 488.066467,637.233032 
	C487.913055,633.700378 487.888367,630.888489 488.022095,628.084106 
	C488.318970,621.856750 488.695190,615.633118 489.039093,609.407959 
	C495.634766,606.312744 502.304962,603.366089 508.813599,600.097534 
	C543.455444,582.701172 578.076782,565.263489 612.638489,547.708618 
	C615.784058,546.110901 618.177979,546.112122 621.342041,547.758118 
	C634.318665,554.508667 647.468689,560.925598 660.599365,568.117737 
	C660.550232,571.402039 660.456604,574.033997 660.363037,576.665894 
z"/>
<path fill="#070808" opacity="1.000000" stroke="none" 
	d="
M429.542664,534.988098 
	C430.594940,536.392273 431.863953,537.819702 431.893860,539.272705 
	C432.081787,548.400757 431.943573,557.535156 432.041534,566.666016 
	C432.060242,568.408081 432.651489,570.144043 433.375397,572.167480 
	C430.901123,574.092346 428.030029,575.732605 424.819092,577.567017 
	C427.886627,579.222961 430.609222,580.692688 433.178253,582.639587 
	C432.997284,592.152954 432.969879,601.189270 432.942505,610.225525 
	C417.093964,602.618225 401.229706,595.043457 385.402588,587.391785 
	C375.422699,582.567017 365.498322,577.627380 354.758057,572.350647 
	C380.028015,559.677246 404.607239,547.350220 429.542664,534.988098 
z"/>
<path fill="#212121" opacity="1.000000" stroke="none" 
	d="
M433.126465,610.515015 
	C432.969879,601.189270 432.997284,592.152954 433.442596,582.899902 
	C449.527222,590.204834 465.194611,597.725159 480.859894,605.249756 
	C483.398315,606.469055 485.927551,607.707397 488.750061,609.172485 
	C488.695190,615.633118 488.318970,621.856750 488.022095,628.084106 
	C487.888367,630.888489 487.913055,633.700378 487.814880,637.008911 
	C469.612701,628.607544 451.461548,619.706055 433.126465,610.515015 
z"/>
<path fill="#212121" opacity="1.000000" stroke="none" 
	d="
M660.729248,576.591553 
	C660.456604,574.033997 660.550232,571.402039 660.821350,568.386230 
	C663.773254,569.282776 666.547668,570.563354 670.067993,572.188171 
	C666.422607,573.947083 663.759094,575.232178 660.729248,576.591553 
z"/>
<path fill="#060606" opacity="1.000000" stroke="none" 
	d="
M488.040985,462.315552 
	C517.173767,447.729797 546.290039,433.110779 575.478027,418.636414 
	C577.336182,417.714996 580.212036,416.961182 581.836426,417.743927 
	C598.415833,425.733368 614.833923,434.057648 632.181885,442.730652 
	C623.121155,447.380524 614.965027,451.655701 606.731262,455.775665 
	C576.578064,470.863556 546.380981,485.863861 516.260681,501.016937 
	C513.578552,502.366241 511.489594,502.367676 508.874298,500.983643 
	C502.117432,497.407837 495.214874,494.107330 488.157928,489.960358 
	C487.977203,480.254425 488.009094,471.285004 488.040985,462.315552 
z"/>
<path fill="#070808" opacity="1.000000" stroke="none" 
	d="
M468.395691,404.935730 
	C469.475922,407.074219 470.814301,409.291718 470.876190,411.544373 
	C471.126190,420.638031 470.928894,429.743042 471.024292,438.842560 
	C471.046417,440.953552 471.571014,443.059326 471.931580,445.580139 
	C469.689880,447.497406 467.380981,449.002045 464.591553,450.819855 
	C467.216583,452.175934 469.399323,453.303558 471.790009,455.164246 
	C472.019226,464.696594 472.040497,473.495850 472.061768,482.295135 
	C461.313843,477.087311 450.539734,471.932709 439.824371,466.658722 
	C425.223724,459.472443 410.666687,452.197693 396.095856,444.950989 
	C395.097931,444.454681 394.141022,443.875977 392.552765,442.996613 
	C418.109528,430.147644 443.088287,417.589294 468.395691,404.935730 
z"/>
<path fill="#212121" opacity="1.000000" stroke="none" 
	d="
M472.272339,482.551636 
	C472.040497,473.495850 472.019226,464.696594 472.008667,455.425812 
	C477.121246,457.332703 482.223083,459.711090 487.682983,462.202515 
	C488.009094,471.285004 487.977203,480.254425 487.930237,489.704224 
	C482.771057,487.725739 477.626984,485.266937 472.272339,482.551636 
z"/>
<path fill="#070707" opacity="1.000000" stroke="none" 
	d="
M576.028198,334.063354 
	C557.943726,343.226471 539.689575,352.075806 521.863586,361.717010 
	C515.322693,365.254639 510.233826,365.284637 503.629028,361.838226 
	C481.521088,350.302185 459.046753,339.468506 436.716705,328.357819 
	C435.587891,327.796112 434.496552,327.159027 432.885712,326.284454 
	C448.627197,318.359192 463.913330,310.660248 479.202240,302.966827 
	C489.011780,298.030579 498.751038,292.943085 508.698975,288.303253 
	C510.724030,287.358734 513.958740,287.255707 515.928833,288.215668 
	C536.235840,298.110901 556.397339,308.304626 576.745056,319.104858 
	C576.603210,324.550781 576.315735,329.307068 576.028198,334.063354 
z"/>
<path fill="#212121" opacity="1.000000" stroke="none" 
	d="
M576.386597,334.027405 
	C576.315735,329.307068 576.603210,324.550781 576.952759,319.380005 
	C581.721069,321.254395 586.427307,323.543304 592.021301,326.263916 
	C586.308594,329.153687 581.526794,331.572571 576.386597,334.027405 
z"/>
</svg>